<svg width="174" height="214" viewBox="0 0 174 214" fill="none" xmlns="http://www.w3.org/2000/svg">
<path d="M25.848 74.5L86.848 119M86.848 189L149.848 162.5M86.848 50.5L149.848 22.5" stroke="white" stroke-width="20"/>
<circle cx="25" cy="74.8772" r="25" transform="rotate(-90 25 74.8772)" fill="white"/>
<circle cx="25.348" cy="144" r="25" transform="rotate(-90 25.348 144)" fill="white"/>
<circle cx="86.348" cy="50" r="25" transform="rotate(-90 86.348 50)" fill="white"/>
<circle cx="86.6961" cy="119.123" r="25" transform="rotate(-90 86.6961 119.123)" fill="white"/>
<circle cx="86.6961" cy="188.123" r="25" transform="rotate(-90 86.6961 188.123)" fill="white"/>
<circle cx="148.348" cy="25" r="25" transform="rotate(-90 148.348 25)" fill="white"/>
<circle cx="148.696" cy="94.1228" r="25" transform="rotate(-90 148.696 94.1228)" fill="white"/>
<circle cx="148.696" cy="163.123" r="25" transform="rotate(-90 148.696 163.123)" fill="white"/>
</svg>
