<svg width="617" height="187" viewBox="0 0 617 187" fill="none" xmlns="http://www.w3.org/2000/svg">
<circle cx="261" cy="68" r="50" fill="#102968"/>
<circle cx="567" cy="137" r="50" fill="#102968"/>
<circle cx="417" cy="168" r="40" fill="#102968"/>
<circle cx="45" cy="78" r="45" fill="#102968"/>
<circle cx="133" cy="15" r="15" fill="#102968"/>
<circle cx="137" cy="246" r="100" fill="#102968"/>
<path d="M-6 3L129.5 13.5M142 17.5L241 82.5M60.5 50.5L126 21.5M102 163.5L106.5 144.5M135 25.5L107.978 138.5M107.978 138.5L56 94.5M107.978 138.5L106.5 144.5M106.5 144.5L-6 159M192 171L282 191M257 107.5L290 191M304 195L379 53.5M379 53.5L282 70M379 53.5L414.5 145M387.5 168L351.5 199M443 163.5L549.5 131M556 151L494.5 210" stroke="#102968" stroke-width="2"/>
</svg>
