<svg width="897" height="214" viewBox="0 0 897 214" fill="none" xmlns="http://www.w3.org/2000/svg">
<path d="M25.848 74.5L86.848 119M86.848 189L149.848 162.5M86.848 50.5L149.848 22.5" stroke="white" stroke-width="20"/>
<circle cx="25" cy="74.8772" r="25" transform="rotate(-90 25 74.8772)" fill="white"/>
<circle cx="25.348" cy="144" r="25" transform="rotate(-90 25.348 144)" fill="white"/>
<circle cx="86.348" cy="50" r="25" transform="rotate(-90 86.348 50)" fill="white"/>
<circle cx="86.6961" cy="119.123" r="25" transform="rotate(-90 86.6961 119.123)" fill="white"/>
<circle cx="86.6961" cy="188.123" r="25" transform="rotate(-90 86.6961 188.123)" fill="white"/>
<circle cx="148.348" cy="25" r="25" transform="rotate(-90 148.348 25)" fill="white"/>
<circle cx="148.696" cy="94.1228" r="25" transform="rotate(-90 148.696 94.1228)" fill="white"/>
<circle cx="148.696" cy="163.123" r="25" transform="rotate(-90 148.696 163.123)" fill="white"/>
<path d="M280.591 86.6818C280.227 83.0151 278.667 80.1667 275.909 78.1364C273.152 76.1061 269.409 75.0909 264.682 75.0909C261.47 75.0909 258.758 75.5455 256.545 76.4545C254.333 77.3333 252.636 78.5606 251.455 80.1364C250.303 81.7121 249.727 83.5 249.727 85.5C249.667 87.1667 250.015 88.6212 250.773 89.8636C251.561 91.1061 252.636 92.1818 254 93.0909C255.364 93.9697 256.939 94.7424 258.727 95.4091C260.515 96.0455 262.424 96.5909 264.455 97.0455L272.818 99.0455C276.879 99.9545 280.606 101.167 284 102.682C287.394 104.197 290.333 106.061 292.818 108.273C295.303 110.485 297.227 113.091 298.591 116.091C299.985 119.091 300.697 122.53 300.727 126.409C300.697 132.106 299.242 137.045 296.364 141.227C293.515 145.379 289.394 148.606 284 150.909C278.636 153.182 272.167 154.318 264.591 154.318C257.076 154.318 250.53 153.167 244.955 150.864C239.409 148.561 235.076 145.152 231.955 140.636C228.864 136.091 227.242 130.47 227.091 123.773H246.136C246.348 126.894 247.242 129.5 248.818 131.591C250.424 133.652 252.561 135.212 255.227 136.273C257.924 137.303 260.97 137.818 264.364 137.818C267.697 137.818 270.591 137.333 273.045 136.364C275.53 135.394 277.455 134.045 278.818 132.318C280.182 130.591 280.864 128.606 280.864 126.364C280.864 124.273 280.242 122.515 279 121.091C277.788 119.667 276 118.455 273.636 117.455C271.303 116.455 268.439 115.545 265.045 114.727L254.909 112.182C247.061 110.273 240.864 107.288 236.318 103.227C231.773 99.1667 229.515 93.697 229.545 86.8182C229.515 81.1818 231.015 76.2576 234.045 72.0455C237.106 67.8333 241.303 64.5455 246.636 62.1818C251.97 59.8182 258.03 58.6364 264.818 58.6364C271.727 58.6364 277.758 59.8182 282.909 62.1818C288.091 64.5455 292.121 67.8333 295 72.0455C297.879 76.2576 299.364 81.1364 299.455 86.6818H280.591ZM313.602 153V83.1818H332.057V95.5H332.875C334.33 91.4091 336.754 88.1818 340.148 85.8182C343.542 83.4545 347.602 82.2727 352.33 82.2727C357.117 82.2727 361.193 83.4697 364.557 85.8636C367.92 88.2273 370.163 91.4394 371.284 95.5H372.011C373.436 91.5 376.011 88.303 379.739 85.9091C383.496 83.4848 387.936 82.2727 393.057 82.2727C399.572 82.2727 404.86 84.3485 408.92 88.5C413.011 92.6212 415.057 98.4697 415.057 106.045V153H395.739V109.864C395.739 105.985 394.708 103.076 392.648 101.136C390.587 99.197 388.011 98.2273 384.92 98.2273C381.405 98.2273 378.663 99.3485 376.693 101.591C374.723 103.803 373.739 106.727 373.739 110.364V153H354.966V109.455C354.966 106.03 353.981 103.303 352.011 101.273C350.072 99.2424 347.511 98.2273 344.33 98.2273C342.178 98.2273 340.239 98.7727 338.511 99.8636C336.814 100.924 335.466 102.424 334.466 104.364C333.466 106.273 332.966 108.515 332.966 111.091V153H313.602ZM450.261 154.318C445.807 154.318 441.837 153.545 438.352 152C434.867 150.424 432.11 148.106 430.08 145.045C428.08 141.955 427.08 138.106 427.08 133.5C427.08 129.621 427.792 126.364 429.216 123.727C430.64 121.091 432.58 118.97 435.034 117.364C437.489 115.758 440.277 114.545 443.398 113.727C446.549 112.909 449.852 112.333 453.307 112C457.367 111.576 460.64 111.182 463.125 110.818C465.61 110.424 467.413 109.848 468.534 109.091C469.655 108.333 470.216 107.212 470.216 105.727V105.455C470.216 102.576 469.307 100.348 467.489 98.7727C465.701 97.197 463.155 96.4091 459.852 96.4091C456.367 96.4091 453.595 97.1818 451.534 98.7273C449.473 100.242 448.11 102.152 447.443 104.455L429.534 103C430.443 98.7576 432.231 95.0909 434.898 92C437.564 88.8788 441.004 86.4848 445.216 84.8182C449.458 83.1212 454.367 82.2727 459.943 82.2727C463.822 82.2727 467.534 82.7273 471.08 83.6364C474.655 84.5455 477.822 85.9545 480.58 87.8636C483.367 89.7727 485.564 92.2273 487.17 95.2273C488.777 98.197 489.58 101.758 489.58 105.909V153H471.216V143.318H470.67C469.549 145.5 468.049 147.424 466.17 149.091C464.292 150.727 462.034 152.015 459.398 152.955C456.761 153.864 453.716 154.318 450.261 154.318ZM455.807 140.955C458.655 140.955 461.17 140.394 463.352 139.273C465.534 138.121 467.246 136.576 468.489 134.636C469.731 132.697 470.352 130.5 470.352 128.045V120.636C469.746 121.03 468.913 121.394 467.852 121.727C466.822 122.03 465.655 122.318 464.352 122.591C463.049 122.833 461.746 123.061 460.443 123.273C459.14 123.455 457.958 123.621 456.898 123.773C454.625 124.106 452.64 124.636 450.943 125.364C449.246 126.091 447.928 127.076 446.989 128.318C446.049 129.53 445.58 131.045 445.58 132.864C445.58 135.5 446.534 137.515 448.443 138.909C450.383 140.273 452.837 140.955 455.807 140.955ZM504.602 153V83.1818H523.375V95.3636H524.102C525.375 91.0303 527.511 87.7576 530.511 85.5455C533.511 83.303 536.966 82.1818 540.875 82.1818C541.845 82.1818 542.89 82.2424 544.011 82.3636C545.133 82.4848 546.117 82.6515 546.966 82.8636V100.045C546.057 99.7727 544.799 99.5303 543.193 99.3182C541.587 99.1061 540.117 99 538.784 99C535.936 99 533.39 99.6212 531.148 100.864C528.936 102.076 527.178 103.773 525.875 105.955C524.602 108.136 523.966 110.652 523.966 113.5V153H504.602ZM597.614 83.1818V97.7273H555.568V83.1818H597.614ZM565.114 66.4545H584.477V131.545C584.477 133.333 584.75 134.727 585.295 135.727C585.841 136.697 586.598 137.379 587.568 137.773C588.568 138.167 589.72 138.364 591.023 138.364C591.932 138.364 592.841 138.288 593.75 138.136C594.659 137.955 595.356 137.818 595.841 137.727L598.886 152.136C597.917 152.439 596.553 152.788 594.795 153.182C593.038 153.606 590.902 153.864 588.386 153.955C583.72 154.136 579.629 153.515 576.114 152.091C572.629 150.667 569.917 148.455 567.977 145.455C566.038 142.455 565.083 138.667 565.114 134.091V66.4545ZM689.955 59.9091V153H672.955L632.455 94.4091H631.773V153H612.091V59.9091H629.364L669.545 118.455H670.364V59.9091H689.955ZM737.67 154.364C730.489 154.364 724.307 152.909 719.125 150C713.973 147.061 710.004 142.909 707.216 137.545C704.428 132.152 703.034 125.773 703.034 118.409C703.034 111.227 704.428 104.924 707.216 99.5C710.004 94.0758 713.928 89.8485 718.989 86.8182C724.08 83.7879 730.049 82.2727 736.898 82.2727C741.504 82.2727 745.792 83.0152 749.761 84.5C753.761 85.9545 757.246 88.1515 760.216 91.0909C763.216 94.0303 765.549 97.7273 767.216 102.182C768.883 106.606 769.716 111.788 769.716 117.727V123.045H710.761V111.045H751.489C751.489 108.258 750.883 105.788 749.67 103.636C748.458 101.485 746.777 99.803 744.625 98.5909C742.504 97.3485 740.034 96.7273 737.216 96.7273C734.277 96.7273 731.67 97.4091 729.398 98.7727C727.155 100.106 725.398 101.909 724.125 104.182C722.852 106.424 722.201 108.924 722.17 111.682V123.091C722.17 126.545 722.807 129.53 724.08 132.045C725.383 134.561 727.216 136.5 729.58 137.864C731.943 139.227 734.746 139.909 737.989 139.909C740.14 139.909 742.11 139.606 743.898 139C745.686 138.394 747.216 137.485 748.489 136.273C749.761 135.061 750.731 133.576 751.398 131.818L769.307 133C768.398 137.303 766.534 141.061 763.716 144.273C760.928 147.455 757.322 149.939 752.898 151.727C748.504 153.485 743.428 154.364 737.67 154.364ZM840.443 103.091L822.716 104.182C822.413 102.667 821.761 101.303 820.761 100.091C819.761 98.8485 818.443 97.8636 816.807 97.1364C815.201 96.3788 813.277 96 811.034 96C808.034 96 805.504 96.6364 803.443 97.9091C801.383 99.1515 800.352 100.818 800.352 102.909C800.352 104.576 801.019 105.985 802.352 107.136C803.686 108.288 805.973 109.212 809.216 109.909L821.852 112.455C828.64 113.848 833.701 116.091 837.034 119.182C840.367 122.273 842.034 126.333 842.034 131.364C842.034 135.939 840.686 139.955 837.989 143.409C835.322 146.864 831.655 149.561 826.989 151.5C822.352 153.409 817.004 154.364 810.943 154.364C801.701 154.364 794.337 152.439 788.852 148.591C783.398 144.712 780.201 139.439 779.261 132.773L798.307 131.773C798.883 134.591 800.277 136.742 802.489 138.227C804.701 139.682 807.534 140.409 810.989 140.409C814.383 140.409 817.11 139.758 819.17 138.455C821.261 137.121 822.322 135.409 822.352 133.318C822.322 131.561 821.58 130.121 820.125 129C818.67 127.848 816.428 126.97 813.398 126.364L801.307 123.955C794.489 122.591 789.413 120.227 786.08 116.864C782.777 113.5 781.125 109.212 781.125 104C781.125 99.5151 782.337 95.6515 784.761 92.4091C787.216 89.1667 790.655 86.6667 795.08 84.9091C799.534 83.1515 804.746 82.2727 810.716 82.2727C819.534 82.2727 826.473 84.1364 831.534 87.8636C836.625 91.5909 839.595 96.6667 840.443 103.091ZM891.364 83.1818V97.7273H849.318V83.1818H891.364ZM858.864 66.4545H878.227V131.545C878.227 133.333 878.5 134.727 879.045 135.727C879.591 136.697 880.348 137.379 881.318 137.773C882.318 138.167 883.47 138.364 884.773 138.364C885.682 138.364 886.591 138.288 887.5 138.136C888.409 137.955 889.106 137.818 889.591 137.727L892.636 152.136C891.667 152.439 890.303 152.788 888.545 153.182C886.788 153.606 884.652 153.864 882.136 153.955C877.47 154.136 873.379 153.515 869.864 152.091C866.379 150.667 863.667 148.455 861.727 145.455C859.788 142.455 858.833 138.667 858.864 134.091V66.4545Z" fill="white"/>
</svg>
