<svg width="282" height="201" viewBox="0 0 282 201" fill="none" xmlns="http://www.w3.org/2000/svg">
<g clip-path="url(#clip0_375_438)">
<path d="M205.915 190.98H200.304L197.634 170.341H205.915V190.98Z" fill="#9E616A"/>
<path d="M208.877 200.252H204.853L204.135 196.629L202.295 200.252H191.623C191.111 200.252 190.613 200.096 190.201 199.807C189.789 199.517 189.485 199.11 189.332 198.645C189.18 198.179 189.188 197.679 189.355 197.218C189.522 196.756 189.839 196.358 190.26 196.081L198.782 190.468V186.805L207.746 187.315L208.877 200.252Z" fill="#1C1C1C"/>
<path d="M239.25 184.227L234.747 187.42L219.69 172.378L226.336 167.665L239.25 184.227Z" fill="#9E616A"/>
<path d="M247.428 189.982L244.199 192.272L241.356 189.773L242.147 193.727L233.583 199.8C233.172 200.092 232.675 200.25 232.163 200.252C231.652 200.255 231.153 200.101 230.739 199.814C230.326 199.527 230.019 199.121 229.864 198.656C229.71 198.191 229.715 197.691 229.879 197.229L233.206 187.875L230.914 184.936L238.427 180.244L247.428 189.982Z" fill="#1C1C1C"/>
<path d="M212.448 84.4917C212.448 84.4917 223.094 93.2631 218.182 118.268L212.185 142.769L231.742 173.711L225.506 180.945L200.082 147.455L190.868 126.845L188.283 90.1639L212.448 84.4917Z" fill="#1C1C1C"/>
<path d="M195.947 132.718L195.307 142.176L197.266 182.477L206.487 180.945L208.249 152.251L195.947 132.718Z" fill="#1C1C1C"/>
<path d="M77.6159 195.833L82.6338 195.833L85.0207 177.375L77.6152 177.376L77.6159 195.833Z" fill="#FFB6B6"/>
<path d="M76.3359 194.271L77.7483 194.271L83.2624 192.132L86.2178 194.27H86.2182C87.8883 194.27 89.49 194.903 90.671 196.029C91.852 197.156 92.5155 198.683 92.5156 200.276V200.471L76.3362 200.472L76.3359 194.271Z" fill="#1C1C1C"/>
<path d="M97.061 192.818L101.955 193.871L108.547 176.369L101.324 174.813L97.061 192.818Z" fill="#FFB6B6"/>
<path d="M96.1732 191.025L97.5509 191.321L103.424 190.394L105.812 193.1L105.813 193.1C107.442 193.451 108.858 194.405 109.75 195.752C110.642 197.098 110.936 198.728 110.568 200.281L110.523 200.472L94.7412 197.073L96.1732 191.025Z" fill="#1C1C1C"/>
<path d="M71.2608 82.9941C68.9082 89.7607 69.1569 97.1056 71.8263 104.989L72.9674 149.372C72.9674 149.372 71.2672 178.478 76.7532 188.721H84.7095L88.6488 146.714L89.1434 118.52L106.201 142.306L95.3365 188.034L105.129 188.869L122.759 139.244L101.007 91.0991L71.2608 82.9941Z" fill="#1C1C1C"/>
<path d="M163.014 63.7203C169.099 58.4905 178.151 55.8609 185.744 58.7934C177.955 62.9172 171.947 69.5354 168.783 77.477C167.574 80.5439 166.565 84.0752 163.591 85.7171C161.742 86.7388 159.44 86.7888 157.366 86.2956C155.292 85.8023 153.39 84.8136 151.515 83.8347L150.981 83.8232C153.377 76.3523 156.928 68.9501 163.014 63.7203Z" fill="#E6E6E6"/>
<path d="M185.702 58.9523C178.978 59.781 172.698 62.6094 167.754 67.0356C166.673 67.9705 165.752 69.0621 165.027 70.2703C164.36 71.4691 164.042 72.8163 164.106 74.1719C164.138 75.437 164.326 76.7274 164.036 77.9781C163.877 78.6162 163.579 79.2151 163.161 79.7357C162.742 80.2562 162.213 80.6865 161.609 80.9984C160.123 81.8129 158.418 82.0697 156.743 82.2656C154.882 82.4831 152.946 82.6809 151.335 83.6761C151.14 83.7967 150.955 83.5009 151.15 83.3805C153.952 81.6489 157.498 82.279 160.511 81.1233C161.917 80.5841 163.161 79.6375 163.601 78.2064C163.986 76.955 163.795 75.6241 163.75 74.3434C163.667 73.0218 163.925 71.7011 164.501 70.4966C165.16 69.257 166.035 68.1334 167.089 67.1737C169.425 64.9773 172.109 63.1448 175.043 61.7435C178.381 60.1264 181.985 59.0659 185.699 58.6079C185.929 58.5796 185.931 58.9242 185.702 58.9523Z" fill="white"/>
<path d="M169.257 65.521C168.591 64.6293 168.279 63.5408 168.377 62.4499C168.475 61.359 168.976 60.3368 169.791 59.5657C169.956 59.4103 170.218 59.6482 170.052 59.8039C169.291 60.5206 168.825 61.4728 168.736 62.4888C168.647 63.5048 168.942 64.5177 169.567 65.3445C169.703 65.5244 169.392 65.6998 169.257 65.521Z" fill="white"/>
<path d="M164 73.5325C166.311 73.923 168.691 73.4684 170.666 72.2596C170.862 72.1396 171.047 72.4354 170.852 72.5552C168.794 73.8095 166.316 74.2777 163.912 73.8664C163.683 73.827 163.772 73.4934 164 73.5325Z" fill="white"/>
<path d="M178.411 60.5821C178.593 60.9784 178.876 61.3252 179.233 61.5915C179.591 61.8578 180.012 62.0352 180.46 62.1079C180.689 62.1444 180.599 62.4781 180.371 62.4417C179.877 62.3593 179.412 62.1628 179.016 61.8694C178.621 61.576 178.306 61.1947 178.101 60.7586C178.078 60.7191 178.071 60.6727 178.083 60.6288C178.094 60.585 178.123 60.547 178.163 60.5226C178.204 60.4994 178.253 60.4926 178.3 60.5038C178.346 60.5149 178.386 60.5431 178.411 60.5821Z" fill="white"/>
<path d="M194.105 84.0139C193.961 83.995 193.817 83.976 193.671 83.9592C191.734 83.714 189.779 83.6193 187.826 83.676C187.675 83.6781 187.521 83.6824 187.371 83.6886C182.666 83.8731 178.039 84.8889 173.723 86.6844C172.007 87.4004 170.35 88.2399 168.767 89.1956C166.581 90.5156 164.321 92.1126 161.877 92.651C161.623 92.7099 161.365 92.7537 161.105 92.7822L151.008 84.4448C150.995 84.4149 150.98 84.387 150.967 84.357L150.548 84.0417C150.626 83.987 150.708 83.9318 150.786 83.8771C150.831 83.8451 150.879 83.8151 150.924 83.7832C150.954 83.7625 150.985 83.7418 151.012 83.7215C151.022 83.7146 151.033 83.7077 151.041 83.703C151.067 83.6826 151.094 83.6664 151.119 83.6483C151.577 83.3387 152.039 83.0317 152.503 82.7272C152.505 82.725 152.505 82.725 152.509 82.7247C156.026 80.3723 159.823 78.426 163.82 76.9267C163.94 76.8835 164.061 76.838 164.186 76.7986C165.986 76.1602 167.838 75.6633 169.723 75.3127C170.756 75.1239 171.798 74.9851 172.846 74.8967C175.553 74.6735 178.28 74.8578 180.927 75.4428C186.204 76.6097 191.031 79.373 193.89 83.6826C193.963 83.7929 194.034 83.9014 194.105 84.0139Z" fill="#E6E6E6"/>
<path d="M193.971 84.1174C188.079 80.918 181.279 79.5706 174.538 80.2665C173.084 80.3917 171.659 80.7348 170.317 81.283C169.028 81.8573 167.924 82.7503 167.119 83.8693C166.346 84.8983 165.681 86.0362 164.66 86.8682C164.131 87.2866 163.514 87.5937 162.852 87.7691C162.189 87.9446 161.495 87.9845 160.815 87.8862C159.115 87.6834 157.592 86.9099 156.13 86.1041C154.507 85.2095 152.836 84.2557 150.922 84.1256C150.69 84.1099 150.729 83.7676 150.961 83.7833C154.292 84.0097 156.725 86.5486 159.86 87.3559C161.323 87.7326 162.914 87.6911 164.169 86.8012C165.267 86.0231 165.954 84.8503 166.726 83.802C167.495 82.6994 168.535 81.793 169.755 81.1619C171.063 80.5504 172.471 80.1556 173.919 79.9945C177.171 79.5823 180.471 79.6603 183.698 80.2257C187.384 80.8515 190.932 82.0741 194.186 83.8405C194.387 83.95 194.171 84.2261 193.971 84.1174Z" fill="white"/>
<path d="M176.695 79.9206C176.726 78.8261 177.165 77.7778 177.931 76.9629C178.698 76.148 179.744 75.6196 180.881 75.472C181.111 75.4429 181.17 75.7828 180.939 75.8119C179.88 75.9475 178.906 76.4399 178.193 77.2001C177.481 77.9603 177.077 78.9383 177.054 79.9576C177.049 80.1791 176.69 80.1408 176.695 79.9206Z" fill="white"/>
<path d="M167.439 83.2984C169.038 84.937 171.225 85.9408 173.566 86.1096C173.797 86.1261 173.758 86.4684 173.527 86.4519C171.092 86.2719 168.818 85.2229 167.158 83.5142C167 83.3513 167.282 83.1363 167.439 83.2984Z" fill="white"/>
<path d="M187.121 81.2321C187.016 81.6532 187.023 82.0925 187.14 82.5104C187.258 82.9284 187.482 83.3121 187.794 83.6269C187.954 83.7878 187.671 84.0026 187.512 83.8427C187.17 83.4934 186.923 83.0694 186.792 82.6079C186.661 82.1463 186.651 81.6613 186.762 81.1951C186.768 81.1503 186.793 81.1096 186.83 81.0812C186.867 81.0529 186.913 81.039 186.961 81.0424C187.008 81.0476 187.052 81.0704 187.082 81.1059C187.112 81.1414 187.126 81.1868 187.121 81.2321Z" fill="white"/>
<path d="M16.7602 195.498C16.2862 197.194 15.0408 198.606 13.5371 199.635C13.292 199.803 13.0403 199.959 12.7853 200.105C12.7069 200.149 12.6284 200.196 12.5467 200.236C12.4584 200.286 12.3702 200.333 12.2819 200.377H5.21151C5.08402 200.13 4.95981 199.881 4.8356 199.635C1.80543 193.562 -0.322559 187.009 0.0402768 180.335C0.184227 177.747 0.754527 175.195 1.73024 172.776C3.67191 167.953 7.21528 163.779 12.0891 161.678C12.21 161.625 12.3375 161.572 12.4617 161.522C12.4225 161.656 12.3832 161.787 12.344 161.921C11.8211 163.718 11.4517 165.551 11.2392 167.405C11.2196 167.548 11.2032 167.691 11.1901 167.838C10.7258 172.307 11.1381 176.82 12.4061 181.146C12.4094 181.155 12.4126 181.168 12.4159 181.177C12.6938 182.134 13.0163 183.076 13.3835 184.004C13.6711 184.737 13.9817 185.46 14.3216 186.171C15.7403 189.154 17.6427 192.334 16.7602 195.498Z" fill="#E6E6E6"/>
<path d="M12.5501 161.663C12.4814 161.75 12.4128 161.834 12.3442 161.921C10.9084 163.736 9.68928 165.697 8.70925 167.769C8.65695 167.872 8.60792 167.975 8.56543 168.081C7.2226 170.975 6.3602 174.05 6.00923 177.196C6.00543 177.218 6.00325 177.24 6.00269 177.262C5.92097 177.997 5.87194 178.739 5.85232 179.481C5.77964 180.872 5.93739 182.265 6.31976 183.609C6.66841 184.706 7.27936 185.711 8.10452 186.545C8.18624 186.629 8.26797 186.713 8.35622 186.794C8.4216 186.86 8.49351 186.925 8.56215 186.988C9.22245 187.589 9.94486 188.147 10.5659 188.793C10.8506 189.082 11.1077 189.395 11.3341 189.728C11.6955 190.286 11.9289 190.91 12.019 191.56C12.1092 192.21 12.054 192.871 11.8571 193.5C11.4125 195.077 10.396 196.408 9.35647 197.677C8.83674 198.313 8.30065 198.955 7.83648 199.635C7.66652 199.878 7.50961 200.124 7.3658 200.377H6.95393C7.09122 200.124 7.24158 199.878 7.40502 199.635C8.59813 197.842 10.2946 196.302 11.1739 194.329C11.7689 192.998 11.9486 191.489 11.1968 190.183C10.9765 189.803 10.7099 189.449 10.4025 189.129C9.80432 188.484 9.08845 187.932 8.43796 187.349C8.27452 187.203 8.11435 187.053 7.96072 186.897C7.1462 186.108 6.51767 185.162 6.11712 184.123C5.6635 182.803 5.44905 181.419 5.48297 180.03C5.48297 179.145 5.532 178.253 5.62353 177.368C5.63334 177.255 5.64641 177.14 5.65949 177.025C6.32797 171.454 8.54804 166.155 12.0892 161.678C12.1546 161.591 12.2232 161.507 12.2919 161.423C12.4324 161.248 12.6906 161.491 12.5501 161.663Z" fill="white"/>
<path d="M5.79131 177.397C4.6591 177.216 3.63134 176.657 2.8916 175.819C2.15186 174.982 1.74829 173.921 1.75297 172.826C1.7536 172.782 1.77237 172.739 1.80533 172.707C1.8383 172.676 1.88288 172.657 1.92969 172.656C1.97649 172.655 2.02187 172.672 2.05626 172.702C2.09064 172.732 2.11135 172.774 2.11403 172.819C2.1077 173.838 2.48372 174.826 3.17424 175.605C3.86476 176.383 4.82428 176.9 5.87963 177.063C6.10892 177.099 6.01929 177.433 5.79131 177.397Z" fill="white"/>
<path d="M8.01359 186.608C9.93716 185.325 11.2833 183.399 11.7835 181.212C11.8329 180.996 12.1829 181.08 12.1336 181.296C11.6086 183.571 10.2035 185.573 8.19869 186.903C8.00751 187.03 7.82345 186.734 8.01359 186.608Z" fill="white"/>
<path d="M8.60095 167.733C9.0237 167.89 9.48077 167.945 9.93112 167.892C10.3815 167.839 10.811 167.68 11.1812 167.43C11.3706 167.301 11.5544 167.598 11.3662 167.726C10.9559 168 10.4813 168.175 9.98391 168.235C9.48647 168.294 8.98133 168.236 8.51262 168.067C8.46704 168.054 8.42813 168.026 8.40382 167.987C8.37951 167.948 8.37162 167.902 8.38174 167.858C8.39367 167.814 8.42339 167.776 8.46444 167.752C8.50548 167.729 8.55454 167.722 8.60095 167.733Z" fill="white"/>
<path d="M37.0723 173.717C36.9579 173.801 36.8402 173.886 36.7258 173.973C35.1738 175.106 33.721 176.357 32.3815 177.714C32.2769 177.817 32.1723 177.923 32.071 178.029L32.0677 178.032C28.8918 181.32 26.3806 185.139 24.6607 189.298L24.6508 189.326C24.6476 189.335 24.6443 189.341 24.641 189.351C23.9593 191.015 23.4097 192.726 22.9968 194.469C22.598 196.171 22.2712 197.995 21.6468 199.635C21.552 199.887 21.4474 200.136 21.3363 200.377H6.80322C6.85225 200.13 6.90456 199.881 6.95686 199.635C7.69614 196.023 8.85159 192.499 10.4022 189.129C10.4545 189.017 10.5068 188.905 10.5656 188.793C11.3661 187.127 12.3073 185.527 13.38 184.008L13.3803 184.006L13.381 184.005L13.382 184.005L13.3833 184.004C13.9723 183.175 14.6051 182.375 15.2792 181.607C17.0274 179.624 19.0925 177.915 21.3984 176.545C21.4115 176.535 21.4278 176.529 21.4409 176.52C26.0303 173.805 31.4695 172.511 36.6702 173.63H36.6735C36.8075 173.658 36.9383 173.686 37.0723 173.717Z" fill="#E6E6E6"/>
<path d="M37.0562 173.882C36.945 173.911 36.8339 173.942 36.726 173.973C34.4351 174.597 32.2239 175.462 30.1329 176.551C30.0283 176.604 29.9237 176.66 29.8191 176.716C26.9293 178.254 24.3062 180.209 22.0426 182.511C22.0408 182.513 22.0397 182.515 22.0393 182.517C22.0132 182.542 21.9838 182.57 21.9609 182.595C21.4379 183.132 20.9345 183.69 20.4572 184.263C19.5237 185.333 18.7715 186.535 18.2279 187.826C17.8125 188.903 17.6659 190.056 17.7997 191.196C17.8095 191.311 17.8258 191.424 17.8422 191.539C17.8553 191.629 17.8683 191.72 17.8847 191.813C18.1004 193.063 18.4731 194.316 18.3685 195.591C18.3048 196.245 18.0969 196.878 17.7583 197.449C17.4197 198.02 16.9581 198.516 16.4039 198.905C16.0272 199.183 15.6245 199.427 15.201 199.635C14.5954 199.932 13.9645 200.181 13.3149 200.377H12.0303C12.2035 200.33 12.3735 200.283 12.5467 200.236C13.1615 200.071 13.7652 199.87 14.3544 199.635C14.691 199.5 15.0185 199.346 15.335 199.173C16.6491 198.453 17.7441 197.35 17.9729 195.875C18.1723 194.585 17.7866 193.294 17.5578 192.031C17.5186 191.813 17.4826 191.598 17.463 191.383C17.3069 190.29 17.4017 189.177 17.7409 188.122C18.2112 186.806 18.9143 185.577 19.8198 184.488C20.3799 183.778 20.9778 183.097 21.6111 182.446C21.6896 182.362 21.7713 182.277 21.8563 182.193C24.1675 179.875 26.8361 177.906 29.77 176.355H29.7733C31.9548 175.196 34.2692 174.282 36.6705 173.63H36.6737C36.7816 173.599 36.8927 173.568 37.0006 173.54C37.2261 173.483 37.2784 173.823 37.0562 173.882Z" fill="white"/>
<path d="M21.727 182.564C20.9375 181.769 20.47 180.733 20.408 179.639C20.3459 178.546 20.6934 177.467 21.3883 176.596C21.5296 176.42 21.8228 176.621 21.6814 176.797C21.0327 177.607 20.7091 178.612 20.7691 179.63C20.829 180.648 21.2685 181.612 22.0083 182.348C22.1689 182.508 21.8867 182.723 21.727 182.564Z" fill="white"/>
<path d="M17.6864 191.194C20.0317 191.275 22.3228 190.509 24.1027 189.051C24.279 188.906 24.5051 189.175 24.3291 189.319C22.4739 190.834 20.0879 191.626 17.6475 191.536C17.4149 191.528 17.455 191.186 17.6864 191.194Z" fill="white"/>
<path d="M30.0713 176.461C30.3096 176.829 30.64 177.135 31.033 177.352C31.426 177.568 31.8691 177.688 32.3227 177.701C32.5553 177.706 32.5149 178.049 32.2838 178.043C31.7828 178.027 31.2935 177.894 30.8588 177.656C30.4241 177.417 30.0571 177.081 29.79 176.677C29.7615 176.641 29.7484 176.596 29.7535 176.551C29.7586 176.506 29.7815 176.464 29.8175 176.435C29.8549 176.406 29.9025 176.393 29.95 176.398C29.9976 176.403 30.0411 176.426 30.0713 176.461Z" fill="white"/>
<path d="M149.182 53.9699C148.847 54.3908 148.419 54.7363 147.928 54.9823C147.437 55.2282 146.896 55.3686 146.342 55.3935C145.789 55.4184 145.236 55.3272 144.723 55.1264C144.211 54.9255 143.75 54.6199 143.375 54.231L131.019 59.3559L132.222 52.7779L143.771 48.9197C144.498 48.3614 145.414 48.0768 146.347 48.1197C147.279 48.1627 148.162 48.5303 148.829 49.1528C149.496 49.7753 149.9 50.6095 149.965 51.4973C150.031 52.3852 149.752 53.2649 149.182 53.9699Z" fill="#FFB8B8"/>
<path d="M140.936 56.0238L112.237 68.2151L112.176 68.1941L79.4657 57.0781C77.0293 55.8638 75.1718 53.8071 74.2735 51.3293C73.3752 48.8515 73.5042 46.1399 74.6339 43.7498C75.2601 42.4292 76.1725 41.2501 77.311 40.2901C78.4495 39.3301 79.7883 38.6109 81.2393 38.1798C82.6903 37.7488 84.2205 37.6157 85.7293 37.7893C87.2381 37.9629 88.6912 38.4393 89.9931 39.1871L114.335 53.1711L137.94 50.2537L140.936 56.0238Z" fill="#E6E6E6"/>
<path d="M282 200.629C282 200.678 281.99 200.726 281.971 200.771C281.951 200.816 281.922 200.857 281.886 200.892C281.85 200.926 281.807 200.953 281.76 200.972C281.713 200.991 281.662 201 281.611 201H0.399725C0.296559 201 0.197622 200.961 0.124673 200.891C0.051724 200.822 0.0107422 200.727 0.0107422 200.629C0.0107422 200.531 0.051724 200.436 0.124673 200.367C0.197622 200.297 0.296559 200.258 0.399725 200.258H281.611C281.662 200.258 281.713 200.267 281.76 200.286C281.807 200.305 281.85 200.332 281.886 200.366C281.922 200.401 281.951 200.442 281.971 200.487C281.99 200.532 282 200.58 282 200.629Z" fill="#CCCCCC"/>
<path d="M102.426 92.5208L73.4949 88.1077C72.7362 87.8759 72.039 87.4903 71.4512 86.9773C70.8635 86.4644 70.3991 85.8362 70.0899 85.1359C69.7808 84.4356 69.6342 83.6798 69.6602 82.9204C69.6862 82.161 69.8842 81.416 70.2407 80.7365L71.5527 78.2338L71.043 51.9403C70.9816 48.5201 71.8657 45.1448 73.6065 42.154C75.3473 39.1632 77.8833 36.6623 80.9594 34.903L83.7806 33.2943L85.2064 29.8413L98.3536 30.1471L98.3919 34.6757L103.1 41.8357L103.1 41.8654L102.805 80.836L101.507 84.8578L103.469 89.5356L102.426 92.5208Z" fill="#E6E6E6"/>
<path d="M92.9836 25.5477C99.5809 25.5477 104.929 20.4473 104.929 14.1557C104.929 7.86411 99.5809 2.76376 92.9836 2.76376C86.3863 2.76376 81.0381 7.86411 81.0381 14.1557C81.0381 20.4473 86.3863 25.5477 92.9836 25.5477Z" fill="#FFB8B8"/>
<path d="M80.545 16.6391C80.1887 15.2077 80.3523 13.1934 80.5537 11.7521C81.0815 7.97352 83.2819 4.3813 86.6249 2.25351C87.2588 1.79438 88.012 1.50892 88.8034 1.4279C89.5943 1.39642 90.4515 1.80016 90.6943 2.51865C90.8935 2.04444 91.1925 1.61421 91.5729 1.25451C91.9533 0.8948 92.4069 0.613251 92.9058 0.42724C93.908 0.0610669 94.9858 -0.0774112 96.0539 0.0227828C98.1241 0.185519 100.11 0.87972 101.799 2.03171C103.489 3.18371 104.821 4.75051 105.652 6.56586C105.971 7.2887 106.862 4.61872 107.267 5.3017C107.638 6.01162 108.286 6.55468 109.072 6.81467C109.864 7.02545 110.186 10.1378 110.498 9.41208C110.74 9.94843 110.835 10.5344 110.776 11.1155C110.716 11.6966 110.503 12.2538 110.157 12.7353C109.811 13.2169 109.343 13.607 108.796 13.8694C108.249 14.1319 107.641 14.258 107.029 14.2362C106.223 14.2074 105.452 13.9246 104.656 13.8029C101.807 13.3676 98.7849 15.3376 98.1759 18.027C97.9578 17.2493 97.6095 16.5102 97.1444 15.8384C96.9082 15.5042 96.5919 15.2287 96.2216 15.0346C95.8512 14.8406 95.4377 14.7337 95.0153 14.7228C94.2048 14.7517 93.4924 15.2571 92.9665 15.8459C92.4406 16.4348 92.0456 17.1219 91.5158 17.7076C89.9614 19.4261 87.8589 23.434 85.6436 23.1417C83.8954 22.911 81.0315 18.5935 80.545 16.6391Z" fill="#1C1C1C"/>
<path d="M165.193 66.879C165.277 66.3597 165.165 65.8288 164.877 65.3807C164.59 64.9325 164.145 64.596 163.622 64.4308L131.453 54.2131C131.144 54.1147 130.818 54.079 130.494 54.1081L122.431 54.8353L117.804 55.2538L109.267 56.0233C108.751 56.0703 108.267 56.2791 107.889 56.6171C107.511 56.955 107.262 57.4029 107.18 57.8905L102.845 83.7135C102.763 84.2172 102.864 84.7325 103.13 85.1744C103.397 85.6162 103.813 85.9582 104.311 86.1438L136.816 98.1094C136.969 98.1659 137.127 98.2065 137.289 98.2305C137.524 98.2668 137.764 98.2686 138 98.2356L159.004 95.2668C159.499 95.1985 159.958 94.9796 160.313 94.6427C160.668 94.3058 160.899 93.8689 160.973 93.3967L165.193 66.879Z" fill="white"/>
<path d="M105.047 84.3243L137.552 96.2893C137.6 96.3072 137.651 96.3129 137.702 96.306L158.703 93.3376C158.765 93.3295 158.823 93.3022 158.867 93.2599C158.912 93.2177 158.941 93.1627 158.95 93.1033L163.173 66.5854C163.182 66.5206 163.168 66.4547 163.132 66.3989C163.097 66.3431 163.042 66.3008 162.977 66.2794L162.761 66.2096L130.806 56.064C130.791 56.0591 130.776 56.0556 130.761 56.0537C130.736 56.0493 130.711 56.0481 130.685 56.05L111.019 57.8247L109.458 57.9644C109.394 57.9709 109.334 57.9972 109.287 58.0393C109.241 58.0813 109.209 58.1369 109.199 58.1975L104.865 84.0195C104.854 84.0826 104.866 84.1473 104.9 84.2027C104.933 84.2582 104.985 84.3011 105.047 84.3243Z" fill="#D8D8D8"/>
<path d="M111.019 57.8247L130.686 56.05C130.711 56.0481 130.736 56.0493 130.761 56.0537C130.776 56.0556 130.791 56.0591 130.806 56.064L162.761 66.2096L154.331 67.0605L151.177 67.3774L142.201 68.2818C142.174 68.2831 142.148 68.2828 142.122 68.2809C142.106 68.2764 142.09 68.2718 142.071 68.2669L111.019 57.8247Z" fill="#1C1C1C"/>
<path d="M104.31 86.1454L136.815 98.1104C136.968 98.1666 137.127 98.2063 137.289 98.2287C137.525 98.2659 137.765 98.2687 138.001 98.2372L159.002 95.2689C159.498 95.2 159.957 94.9809 160.312 94.6438C160.667 94.3067 160.898 93.8697 160.973 93.3973L165.193 66.879C165.255 66.488 165.208 66.0883 165.056 65.7204C165.035 65.6715 165.013 65.6225 164.988 65.5764C164.821 65.2405 164.566 64.951 164.248 64.7355C164.057 64.6045 163.846 64.5018 163.622 64.4311L163.584 64.4182L131.454 54.2129C131.323 54.1729 131.189 54.1419 131.053 54.12C130.867 54.0949 130.679 54.0914 130.493 54.1096L122.431 54.8343L117.805 55.2551L109.266 56.024C108.916 56.0551 108.579 56.1614 108.279 56.3349C108.256 56.3456 108.234 56.3583 108.213 56.3727C108.198 56.382 108.184 56.3922 108.17 56.4033C107.908 56.5738 107.685 56.7934 107.515 57.0487C107.345 57.304 107.231 57.5897 107.181 57.8883L102.843 83.7132C102.761 84.2173 102.862 84.733 103.129 85.1752C103.395 85.6173 103.812 85.9596 104.31 86.1454ZM107.756 57.9783C107.809 57.6688 107.953 57.38 108.171 57.1456C108.238 57.0702 108.312 57.0014 108.392 56.9402C108.613 56.7702 108.874 56.6542 109.152 56.6024C109.207 56.5915 109.262 56.5841 109.318 56.5799L123.696 55.2846L130.549 54.6627C130.595 54.6576 130.638 54.6583 130.681 54.656C130.785 54.6539 130.888 54.6613 130.991 54.6779C131.085 54.6896 131.177 54.7106 131.267 54.7407L163.434 64.9588C163.46 64.9674 163.482 64.9757 163.507 64.9843C163.8 65.0881 164.057 65.2664 164.25 65.4998C164.403 65.6785 164.515 65.886 164.578 66.1086C164.641 66.3313 164.655 66.5642 164.617 66.7921L160.393 93.3131C160.338 93.6668 160.165 93.9942 159.899 94.2468C159.634 94.4995 159.291 94.6641 158.92 94.7164L137.915 97.6845C137.615 97.7256 137.308 97.6923 137.025 97.5878L104.52 85.6259C104.147 85.4859 103.836 85.2293 103.636 84.8981C103.437 84.567 103.361 84.181 103.422 83.8035L107.756 57.9783Z" fill="#313131"/>
<path d="M108.1 56.5441C108.117 56.4971 108.148 56.4555 108.188 56.4237C108.201 56.4136 108.215 56.4044 108.23 56.3962C108.244 56.3912 108.257 56.3831 108.271 56.3781C108.336 56.3531 108.409 56.3519 108.475 56.3747L109.152 56.6024L142.204 67.7216L149.94 66.9422L154.269 66.5068L163.431 65.5817L164.25 65.4998L164.41 65.483C164.478 65.477 164.547 65.4941 164.604 65.5313C164.661 65.5685 164.702 65.6235 164.721 65.6868C164.725 65.7013 164.728 65.7163 164.729 65.7314C164.736 65.7914 164.722 65.8519 164.69 65.9037C164.657 65.9555 164.608 65.9959 164.55 66.0187C164.524 66.029 164.497 66.036 164.469 66.0396L163.354 66.151L154.332 67.0605L151.177 67.3774L142.201 68.2818C142.175 68.2831 142.148 68.2828 142.122 68.2809C142.106 68.2764 142.09 68.2718 142.071 68.2669L108.392 56.9402L108.278 56.9017C108.252 56.8934 108.227 56.8806 108.206 56.8638C108.155 56.8281 108.117 56.7779 108.098 56.7205C108.079 56.663 108.08 56.6012 108.1 56.5441Z" fill="#313131"/>
<path d="M137.378 98.3099C137.302 98.2983 137.234 98.2586 137.188 98.1993C137.143 98.14 137.124 98.0659 137.135 97.9933L141.88 67.9629C141.892 67.8899 141.933 67.8242 141.996 67.7803C142.058 67.7364 142.136 67.718 142.213 67.729L142.215 67.7294C142.291 67.741 142.36 67.7808 142.405 67.8401C142.451 67.8994 142.47 67.9734 142.458 68.046L137.713 98.0764C137.701 98.1494 137.66 98.2151 137.597 98.259C137.535 98.3029 137.457 98.3213 137.38 98.3103L137.378 98.3099Z" fill="#313131"/>
<path d="M149.406 96.4049L146.25 96.7225L149.942 66.9414C149.942 66.9414 154.157 66.2136 154.269 66.5054C154.339 66.6797 149.436 96.2139 149.406 96.4049Z" fill="#313131"/>
<path d="M108.279 56.9013L108.194 70.4825L133.405 79.6436L142.458 68.046L108.279 56.9013Z" fill="#313131"/>
<path d="M164.252 65.5002C164.041 65.2477 163.757 65.0595 163.435 64.9589L131.269 54.7411C131.178 54.7121 131.086 54.6905 130.991 54.6767C130.889 54.6599 130.785 54.6524 130.681 54.6545L130.733 54.3436L131.055 54.1213L138.693 48.8471L164.203 56.3028L164.248 64.7356L164.252 65.5002Z" fill="#313131"/>
<path d="M109.564 78.7036C109.6 78.707 109.636 78.7141 109.67 78.725L119.54 81.8164C119.664 81.855 119.766 81.9389 119.825 82.0496C119.884 82.1603 119.894 82.2887 119.853 82.4065C119.813 82.5243 119.725 82.622 119.609 82.678C119.493 82.734 119.358 82.7437 119.234 82.705L109.365 79.6136C109.25 79.5777 109.153 79.5028 109.093 79.4032C109.033 79.3036 109.013 79.1863 109.038 79.0737C109.062 78.9611 109.13 78.8611 109.227 78.7928C109.324 78.7246 109.444 78.6928 109.564 78.7036Z" fill="white"/>
<path d="M149.385 135.677C151.552 135.677 153.308 134.002 153.308 131.936C153.308 129.87 151.552 128.195 149.385 128.195C147.219 128.195 145.463 129.87 145.463 131.936C145.463 134.002 147.219 135.677 149.385 135.677Z" fill="#F2F2F2"/>
<path d="M49.3601 149.393C51.5264 149.393 53.2826 147.718 53.2826 145.652C53.2826 143.586 51.5264 141.911 49.3601 141.911C47.1937 141.911 45.4375 143.586 45.4375 145.652C45.4375 147.718 47.1937 149.393 49.3601 149.393Z" fill="#F2F2F2"/>
<path d="M131.08 25.6355C133.246 25.6355 135.002 23.9607 135.002 21.8947C135.002 19.8288 133.246 18.154 131.08 18.154C128.913 18.154 127.157 19.8288 127.157 21.8947C127.157 23.9607 128.913 25.6355 131.08 25.6355Z" fill="#F2F2F2"/>
<path d="M137.515 84.2053C137.007 84.416 136.456 84.5177 135.902 84.5035C135.348 84.4892 134.804 84.3593 134.308 84.1228C133.813 83.8863 133.377 83.549 133.033 83.1347C132.689 82.7204 132.444 82.2392 132.316 81.7249L118.91 80.4332L123.332 75.2565L135.385 77.2767C136.305 77.1287 137.25 77.3077 138.041 77.7799C138.833 78.252 139.415 78.9845 139.677 79.8386C139.94 80.6926 139.865 81.6089 139.466 82.4137C139.068 83.2185 138.374 83.856 137.515 84.2053Z" fill="#FFB8B8"/>
<path d="M129.27 82.1517L97.9849 79.4028L97.942 79.3557L75.1093 54.4058C73.6066 52.2104 73.0409 49.5502 73.5278 46.9699C74.0148 44.3897 75.5176 42.0845 77.7286 40.5265C78.952 39.6666 80.3524 39.0635 81.8378 38.757C83.3232 38.4505 84.8598 38.4475 86.3464 38.7481C87.8331 39.0488 89.2362 39.6463 90.4633 40.5013C91.6903 41.3564 92.7136 42.4496 93.4658 43.7089L107.529 67.2585L129.615 75.7211L129.27 82.1517Z" fill="#E6E6E6"/>
<path d="M207.794 34.171C207.017 28.7363 206.043 22.9013 202.024 18.9781C200.748 17.7333 199.222 16.7477 197.536 16.0807C195.851 15.4137 194.041 15.0791 192.216 15.0971C190.391 15.1151 188.589 15.4853 186.918 16.1855C185.247 16.8856 183.743 17.9012 182.495 19.1709C179.569 22.1476 178.277 26.3272 178.158 30.4057C178.04 34.4841 178.993 38.5172 180.049 42.4707C185.641 42.5773 191.191 41.5354 196.323 39.416C197.607 38.8848 198.869 38.2842 200.225 37.9551C201.581 37.626 202.547 38.4541 203.809 39.0316L204.501 37.7674C205.068 38.7732 206.823 38.4751 207.459 37.508C208.096 36.5408 207.956 35.3023 207.794 34.171Z" fill="#1C1C1C"/>
<path d="M185.629 64.5051L162.788 64.971C162.438 64.3928 161.918 63.9242 161.293 63.6223C160.668 63.3205 159.965 63.1983 159.269 63.2708C158.572 63.3432 157.913 63.6071 157.371 64.0303C156.829 64.4535 156.428 65.0179 156.216 65.6546C156.004 66.2914 155.991 66.9731 156.178 67.6169C156.365 68.2606 156.744 68.8386 157.27 69.2806C157.795 69.7225 158.444 70.0094 159.137 70.1062C159.83 70.203 160.537 70.1056 161.174 69.8258C164.203 69.99 187.903 73.1979 189.317 71.1306C190.752 69.0323 198.412 61.6271 198.412 61.6271L192.524 53.6331L185.629 64.5051Z" fill="#9E616A"/>
<path d="M191.195 39.5479C197.122 39.5479 201.927 34.9659 201.927 29.3137C201.927 23.6616 197.122 19.0796 191.195 19.0796C185.269 19.0796 180.464 23.6616 180.464 29.3137C180.464 34.9659 185.269 39.5479 191.195 39.5479Z" fill="#9E616A"/>
<path d="M208.383 49.0053C207.118 46.6051 206.504 43.6398 203.808 42.8617C201.987 42.3362 194.624 43.1237 192.964 44.0107C190.204 45.4861 192.705 48.2509 191.077 50.8382C189.307 53.6509 184.496 59.2955 182.726 62.1081C181.509 64.0417 185.608 69.7173 184.95 71.8834C184.292 74.0494 184.261 76.4806 185.382 78.4663C186.385 80.2436 184.933 81.8158 185.942 83.5902C186.991 85.4355 188.279 92.3351 187.303 94.2164L186.649 96.0868C193.136 96.4503 198.591 89.0591 205.038 88.2805C206.64 88.0871 208.303 87.8345 209.622 86.948C211.566 85.6423 212.334 83.273 212.815 81.0523C215.126 70.1976 213.566 58.9176 208.383 49.0053Z" fill="#313131"/>
<path d="M218.11 74.3496C217.207 71.9974 215.571 61.7131 215.571 61.7131L205.332 61.4268L210.338 73.2015L196.677 91.4387C196.677 91.4387 196.703 91.4787 196.749 91.5502C196.03 91.4403 195.294 91.5397 194.636 91.8354C193.978 92.1312 193.429 92.6094 193.061 93.2077C192.692 93.8059 192.522 94.4962 192.572 95.1882C192.622 95.8803 192.89 96.5419 193.34 97.0864C193.791 97.6309 194.404 98.033 195.098 98.2401C195.792 98.4472 196.536 98.4496 197.231 98.247C197.927 98.0444 198.542 97.6462 198.997 97.1046C199.451 96.563 199.724 95.9031 199.779 95.2114C199.829 95.2389 199.888 95.2489 199.945 95.2395C200.002 95.2301 200.054 95.2021 200.092 95.1602C201.612 93.3411 219.014 76.7019 218.11 74.3496Z" fill="#9E616A"/>
<path d="M219.152 67.8547C218.212 64.0719 217.265 60.2685 215.681 56.6867C214.096 53.1048 211.828 49.7217 208.637 47.3019C207.617 46.5282 206.477 45.8454 205.198 45.6049C203.92 45.3643 202.479 45.6335 201.581 46.5342C200.144 47.9755 200.576 50.2891 201.103 52.2133C202.657 57.8869 204.211 63.5606 205.765 69.2342C210.253 68.7806 214.741 68.3269 219.229 67.8732L219.152 67.8547Z" fill="#313131"/>
<path d="M204.345 30.7332C203.95 28.2575 203.537 25.761 202.609 23.4298C201.68 21.0986 200.183 18.9152 198.037 17.5946C194.637 15.5038 190.237 15.907 186.426 17.1097C183.478 18.0398 180.601 19.4535 178.523 21.7262C176.445 23.999 175.277 27.2419 176.05 30.2136C180.116 29.2977 184.181 28.3817 188.246 27.4658L187.801 27.7656C189.136 28.4004 190.301 29.3168 191.209 30.4453C192.117 31.5738 192.744 32.8847 193.041 34.2786C193.332 35.6894 193.29 37.1441 192.919 38.5377C192.548 39.9312 191.856 41.2286 190.895 42.3361C193.667 41.3982 196.44 40.4602 199.212 39.5223C200.924 38.9434 202.755 38.2763 203.77 36.7914C204.947 35.0698 204.673 32.7878 204.345 30.7332Z" fill="#1C1C1C"/>
</g>
<defs>
<clipPath id="clip0_375_438">
<rect width="282" height="201" fill="white"/>
</clipPath>
</defs>
</svg>
