<svg width="584" height="67" viewBox="0 0 584 67" fill="none" xmlns="http://www.w3.org/2000/svg">
<circle cx="356.646" cy="-4.54131" r="50" transform="rotate(-179.441 356.646 -4.54131)" fill="#102968"/>
<circle cx="572.733" cy="-12.4343" r="45" transform="rotate(-179.441 572.733 -12.4343)" fill="#102968"/>
<circle cx="484.123" cy="49.7045" r="15" transform="rotate(-179.441 484.123 49.7045)" fill="#102968"/>
<path d="M623 63.0595L487.608 51.2386M475.148 47.1168L376.787 -18.8456M556.966 14.9133L491.186 43.2731M516.57 -98.4861L511.885 -79.5309M482.226 39.1855L510.348 -73.5456M510.348 -73.5456L561.895 -29.0408M510.348 -73.5456L511.885 -79.5309M511.885 -79.5309L624.521 -92.933M426.647 -106.863L336.847 -127.74M361.031 -44.0004L328.847 -127.818M314.887 -131.955L238.51 8.8072M238.51 8.8072L335.667 -6.74601M238.51 8.8072L203.904 -83.0347M231.127 -105.77L267.428 -136.418M175.586 -101.812L68.7743 -70.3519M62.4696 -90.4144L124.542 -148.812" stroke="#102968" stroke-width="2"/>
</svg>
